<mxfile host="app.diagrams.net" agent="Mozilla/5.0 (Windows NT 10.0; Win64; x64) AppleWebKit/537.36 (KHTML, like Gecko) Chrome/140.0.0.0 Safari/537.36" version="28.2.4">
  <diagram name="Page-1" id="iGCv1wYfzPyGNJ4XCZES">
    <mxGraphModel dx="850" dy="537" grid="1" gridSize="10" guides="1" tooltips="1" connect="1" arrows="1" fold="1" page="1" pageScale="1" pageWidth="850" pageHeight="1100" math="0" shadow="0">
      <root>
        <mxCell id="0" />
        <mxCell id="1" parent="0" />
        <mxCell id="SkinPmJJd3MMovw8GYFM-6" style="edgeStyle=orthogonalEdgeStyle;rounded=0;orthogonalLoop=1;jettySize=auto;html=1;entryX=0;entryY=0.5;entryDx=0;entryDy=0;" edge="1" parent="1" source="SkinPmJJd3MMovw8GYFM-1" target="SkinPmJJd3MMovw8GYFM-5">
          <mxGeometry relative="1" as="geometry" />
        </mxCell>
        <mxCell id="SkinPmJJd3MMovw8GYFM-8" style="edgeStyle=orthogonalEdgeStyle;rounded=0;orthogonalLoop=1;jettySize=auto;html=1;" edge="1" parent="1" source="SkinPmJJd3MMovw8GYFM-1" target="SkinPmJJd3MMovw8GYFM-7">
          <mxGeometry relative="1" as="geometry" />
        </mxCell>
        <mxCell id="SkinPmJJd3MMovw8GYFM-1" value="" style="rounded=0;whiteSpace=wrap;html=1;" vertex="1" parent="1">
          <mxGeometry x="80" y="80" width="200" height="160" as="geometry" />
        </mxCell>
        <mxCell id="SkinPmJJd3MMovw8GYFM-2" value="" style="verticalLabelPosition=bottom;html=1;verticalAlign=top;align=center;strokeColor=none;fillColor=#00BEF2;shape=mxgraph.azure.github_code;pointerEvents=1;" vertex="1" parent="1">
          <mxGeometry x="80" y="80" width="50" height="50" as="geometry" />
        </mxCell>
        <mxCell id="SkinPmJJd3MMovw8GYFM-3" value="&lt;b&gt;GitHub&lt;/b&gt;" style="text;html=1;align=center;verticalAlign=middle;resizable=0;points=[];autosize=1;strokeColor=none;fillColor=none;" vertex="1" parent="1">
          <mxGeometry x="160" y="80" width="60" height="30" as="geometry" />
        </mxCell>
        <mxCell id="SkinPmJJd3MMovw8GYFM-4" value="" style="verticalLabelPosition=bottom;html=1;verticalAlign=top;align=center;strokeColor=none;fillColor=#00BEF2;shape=mxgraph.azure.code_file;pointerEvents=1;" vertex="1" parent="1">
          <mxGeometry x="156.25" y="130" width="47.5" height="50" as="geometry" />
        </mxCell>
        <mxCell id="SkinPmJJd3MMovw8GYFM-5" value="&lt;b&gt;GitHub Runners&lt;/b&gt;" style="rounded=1;whiteSpace=wrap;html=1;fillColor=#d5e8d4;strokeColor=#82b366;" vertex="1" parent="1">
          <mxGeometry x="440" y="80" width="120" height="60" as="geometry" />
        </mxCell>
        <mxCell id="SkinPmJJd3MMovw8GYFM-7" value="&lt;b&gt;SelfHosted Runners&lt;/b&gt;" style="rounded=1;whiteSpace=wrap;html=1;fillColor=#f8cecc;strokeColor=#b85450;" vertex="1" parent="1">
          <mxGeometry x="440" y="200" width="120" height="60" as="geometry" />
        </mxCell>
        <mxCell id="SkinPmJJd3MMovw8GYFM-9" value="&lt;b&gt;Events&lt;/b&gt;&lt;div&gt;&lt;b&gt;Push&lt;/b&gt;&lt;/div&gt;&lt;div&gt;&lt;b&gt;PR&lt;/b&gt;&lt;/div&gt;&lt;div&gt;&lt;b&gt;New branch&lt;/b&gt;&lt;/div&gt;&lt;div&gt;&lt;b&gt;New issue&lt;/b&gt;&lt;/div&gt;&lt;div&gt;&lt;b&gt;Manual trigger&lt;/b&gt;&lt;/div&gt;" style="text;html=1;align=center;verticalAlign=middle;resizable=0;points=[];autosize=1;strokeColor=none;fillColor=none;" vertex="1" parent="1">
          <mxGeometry x="265" y="203" width="110" height="100" as="geometry" />
        </mxCell>
      </root>
    </mxGraphModel>
  </diagram>
</mxfile>
